<svg width="105" height="306" viewBox="0 0 105 306" fill="none" xmlns="http://www.w3.org/2000/svg">
<line x1="36" y1="272" x2="36" y2="59" stroke="#D2D2D2" stroke-width="2" stroke-dasharray="2 2"/>
<g clip-path="url(#clip0_17801_5953)">
<path d="M68.2441 170.456C72.4525 179.716 63.2925 192.924 47.7861 199.971C32.1728 206.978 16.1992 205.194 12.0242 196.007C11.7904 195.493 11.6301 194.945 11.5032 194.471C8.87809 185.378 17.8911 173.213 32.5891 166.533C47.2871 159.853 62.3789 161.063 67.536 169.094C67.703 169.461 68.0103 169.942 68.2441 170.456Z" fill="#78CCCA"/>
<path d="M67.4292 169.054C67.9234 171.312 67.0748 173.737 66.6805 176.576C66.2862 179.415 65.1036 182.081 62.164 183.417C60.6942 184.085 59.3446 185.408 58.5294 186.931C57.2466 189.376 54.7279 191.053 52.0689 191.64C49.7373 192.168 47.3789 193.417 45.5082 195.154C42.4082 197.893 39.1546 198.928 35.4067 198.681C32.0196 198.447 28.7861 198.941 26.0402 199.923C22.0117 201.399 19.0722 200.785 16.1996 198.366C14.4493 196.856 12.5653 196.028 11.4297 194.504C8.80463 185.412 17.8176 173.246 32.5156 166.566C47.1802 159.813 62.272 161.023 67.4292 169.054Z" fill="#5EC4BA"/>
<path d="M66.1065 165.753C67.2755 168.325 66.1997 171.031 65.7519 174.338C65.3576 177.177 64.175 179.843 61.2354 181.179C59.7656 181.847 58.416 183.17 57.6009 184.693C56.2446 187.171 53.7993 188.815 51.1403 189.402C48.8087 189.93 46.4503 191.179 44.5796 192.916C41.4796 195.655 38.226 196.69 34.4781 196.443C31.091 196.209 27.8575 196.703 25.1451 197.759C21.043 199.268 18.0701 198.58 15.1975 196.161C13.1666 194.424 10.8551 193.435 9.88653 191.304C6.27933 183.367 15.9403 171.262 31.4468 164.215C47.0267 157.134 62.4993 157.816 66.1065 165.753Z" fill="#EB5660"/>
<path d="M63.8351 160.756C68.0435 170.016 58.8501 183.149 43.3437 190.197C27.7638 197.278 11.7902 195.493 7.6152 186.307C7.2144 185.425 6.96058 184.476 6.78025 183.494C5.27086 174.515 14.1101 163.138 28.0732 156.792C42.1098 150.413 56.4935 151.235 62.2653 158.277C62.8531 158.985 63.4009 159.8 63.8351 160.756Z" fill="#5EC4BA"/>
<path d="M62.5658 158.939C64.0752 167.918 55.2359 179.294 41.1993 185.674C27.2362 192.02 12.8526 191.197 7.08077 184.156C5.57138 175.176 14.4106 163.8 28.3737 157.454C42.4103 151.074 56.794 151.897 62.5658 158.939Z" fill="#78CCCA"/>
<path d="M32.569 161.222C34.9673 163.767 32.1276 170.201 26.3284 175.585C20.5627 181.043 13.9018 183.361 11.537 180.889C9.1387 178.343 11.9784 171.91 17.7775 166.526C23.5433 161.068 30.2042 158.75 32.569 161.222Z" fill="#9BD7D5"/>
<path d="M43.5388 165.458C43.2449 165.592 43.4787 166.106 43.7726 165.972C44.1067 165.732 43.9063 165.291 43.5388 165.458Z" fill="#5EC4BA"/>
<path d="M45.2292 159.813C44.2739 160.247 44.9419 161.717 45.8972 161.283C46.8526 160.848 46.1846 159.379 45.2292 159.813Z" fill="#5EC4BA"/>
<path d="M37.5525 172.967C36.5971 173.401 37.2985 174.944 38.2539 174.51C39.2827 174.043 38.5813 172.499 37.5525 172.967Z" fill="#5EC4BA"/>
<path d="M26.1011 180.743L26.0276 180.776C25.7336 180.91 25.9674 181.424 26.2614 181.29L26.3349 181.257C26.6288 181.123 26.395 180.609 26.1011 180.743Z" fill="#5EC4BA"/>
<path d="M34.1184 169.119L34.0449 169.152C33.7243 169.032 33.5238 169.566 33.8445 169.687C34.0249 169.693 34.1318 169.733 34.3522 169.633C34.7197 169.466 34.4859 168.952 34.1184 169.119Z" fill="#5EC4BA"/>
<path d="M33.2107 157.561C32.9167 157.694 33.1505 158.209 33.4445 158.075C33.7385 157.942 33.5047 157.427 33.2107 157.561Z" fill="#7AC143"/>
<path d="M31.0649 181.324L30.8445 181.424C29.8891 181.859 30.5905 183.402 31.5459 182.968L31.7663 182.867C32.7618 182.326 32.0938 180.857 31.0649 181.324Z" fill="#5EC4BA"/>
<path d="M11.3032 181.35C10.8356 181.296 10.4615 181.644 10.408 182.111C10.3278 182.325 10.3545 182.579 10.4547 182.799C10.6551 183.24 11.1562 183.367 11.5236 183.2C11.8911 183.033 12.0514 182.606 11.9579 182.205C12.1183 181.777 11.664 181.363 11.3032 181.35Z" fill="#5EC4BA"/>
<path d="M48.8894 174.11C47.934 174.544 48.602 176.014 49.5574 175.58C50.5128 175.146 49.9182 173.642 48.8894 174.11Z" fill="#5EC4BA"/>
</g>
<g clip-path="url(#clip1_17801_5953)">
<path d="M65.3434 288.292C62.7242 297.589 48.1249 301.6 32.7269 297.262C17.2767 292.83 6.91805 281.788 9.51653 272.564C9.66204 272.047 9.88053 271.552 10.0782 271.129C13.7302 262.919 27.59 259.576 42.1853 263.688C56.7806 267.8 66.857 277.886 65.6654 286.869C65.5615 287.238 65.4889 287.775 65.3434 288.292Z" fill="#F281A3"/>
<path d="M65.6128 286.775C64.5929 288.717 62.5093 289.962 60.4991 291.785C58.489 293.608 56.0197 294.824 53.1006 294.002C51.6411 293.591 49.8693 293.729 48.3585 294.338C45.9516 295.333 43.1267 295.015 40.864 293.82C38.8724 292.781 36.4226 292.25 34.0255 292.371C30.1378 292.471 27.1768 291.238 24.6421 288.772C22.3577 286.536 19.7403 284.922 17.1755 283.961C13.3909 282.576 11.6589 280.336 11.0725 276.825C10.7373 274.66 9.89163 272.909 10.0049 271.109C13.6568 262.899 27.5167 259.556 42.1119 263.668C56.728 267.706 66.8044 277.792 65.6128 286.775Z" fill="#EE5D7C"/>
<path d="M66.6737 283.569C65.9461 286.152 63.529 287.462 61.196 289.592C59.1858 291.415 56.7165 292.631 53.7975 291.809C52.3379 291.397 50.5662 291.535 49.0553 292.145C46.5754 293.119 43.8236 292.822 41.5609 291.627C39.5693 290.588 37.1195 290.057 34.7223 290.178C30.8347 290.278 27.8736 289.045 25.3389 286.579C23.0545 284.342 20.4371 282.729 17.8515 281.841C13.994 280.436 12.2828 278.122 11.6963 274.612C11.2983 272.11 10.2439 269.981 10.8468 267.841C13.0919 259.872 27.3793 256.968 42.7774 261.306C58.1754 265.644 68.9188 275.6 66.6737 283.569Z" fill="#AAD7D4"/>
<path d="M68.0873 278.551C65.468 287.849 50.8895 291.786 35.4915 287.448C20.0205 283.089 9.66192 272.047 12.2604 262.824C12.5098 261.938 12.9052 261.094 13.3736 260.27C17.7558 252.823 31.0115 249.947 44.877 253.854C58.7425 257.76 68.6203 267.153 68.4708 275.792C68.461 276.666 68.3575 277.592 68.0873 278.551Z" fill="#EE5D7C"/>
<path d="M68.4706 275.792C64.1092 283.165 50.8536 286.041 36.9151 282.115C22.9766 278.188 13.2447 268.836 13.3735 260.27C17.7557 252.823 31.0113 249.947 44.8768 253.853C58.7423 257.76 68.6202 267.153 68.4706 275.792Z" fill="#F281A3"/>
<path d="M45.4027 259.816C45.5721 263.129 39.623 266.072 32.1917 266.448C24.7605 266.823 18.5571 264.518 18.3669 261.279C18.1976 257.966 24.1467 255.022 31.5779 254.647C39.0299 254.197 45.2126 256.576 45.4027 259.816Z" fill="#F2AEBD"/>
<path d="M50.6843 269.587C50.3924 269.505 50.2468 270.021 50.5387 270.103C50.9244 270.132 51.0491 269.69 50.6843 269.587Z" fill="#EE3686"/>
<path d="M55.3307 266.515C54.382 266.248 53.9662 267.724 54.9149 267.991C55.8636 268.258 56.2794 266.782 55.3307 266.515Z" fill="#EE3686"/>
<path d="M41.8263 271.392C40.8776 271.125 40.4618 272.601 41.4105 272.868C42.4114 273.229 42.8479 271.68 41.8263 271.392Z" fill="#EE3686"/>
<path d="M28.8905 270.058L28.8176 270.037C28.5257 269.955 28.3801 270.471 28.672 270.554L28.745 270.574C29.0369 270.656 29.1824 270.14 28.8905 270.058Z" fill="#EE3686"/>
<path d="M41.7081 266.5C41.6351 266.48 41.7081 266.5 41.7081 266.5C41.4785 266.197 41.0097 266.463 41.1663 266.746C41.2914 266.861 41.3436 266.955 41.5626 267.017C41.9274 267.12 42.0729 266.603 41.7081 266.5Z" fill="#EE3686"/>
<path d="M48.09 257.546C47.7981 257.464 47.6526 257.981 47.9445 258.063C48.2364 258.145 48.3819 257.629 48.09 257.546Z" fill="#EE3686"/>
<path d="M32.093 273.508L31.8741 273.447C30.9254 273.18 30.4889 274.729 31.4376 274.996L31.6565 275.058C32.699 275.272 33.1147 273.796 32.093 273.508Z" fill="#EE3686"/>
<path d="M17.9188 261.471C17.6163 261.147 17.1369 261.171 16.814 261.478C16.6265 261.585 16.4911 261.786 16.4288 262.007C16.304 262.45 16.5858 262.848 16.9507 262.951C17.3155 263.053 17.6906 262.84 17.8675 262.492C18.2426 262.279 18.1691 261.701 17.9188 261.471Z" fill="#EE3686"/>
<path d="M49.2535 279.139C48.3048 278.872 47.8891 280.348 48.8378 280.615C49.8594 280.903 50.2752 279.427 49.2535 279.139Z" fill="#EE3686"/>
</g>
<g clip-path="url(#clip2_17801_5953)">
<path d="M67.2602 98.8187C63.9754 108.922 47.6045 112.643 30.6853 107.142C13.712 101.535 2.65933 88.8985 5.91807 78.8753C6.10056 78.314 6.36323 77.7787 6.59984 77.3237C10.9871 68.4653 26.5099 65.4439 42.5471 70.6579C58.5842 75.8718 69.3623 87.4442 67.6753 97.2691C67.545 97.6701 67.4427 98.2574 67.2602 98.8187Z" fill="#F7AD1A"/>
<path d="M67.6214 97.1629C66.4103 99.2516 64.0466 100.522 61.741 102.433C59.4354 104.343 56.6447 105.563 53.4372 104.521C51.8335 103.999 49.8609 104.067 48.1588 104.666C45.4463 105.646 42.323 105.163 39.8594 103.741C37.6904 102.504 34.9921 101.804 32.3259 101.824C28.0057 101.749 24.7683 100.254 22.0542 97.4206C19.6087 94.8523 16.7682 92.9535 13.9598 91.7744C9.8142 90.072 7.98217 87.5258 7.47339 83.6366C7.18897 81.2389 6.32114 79.2722 6.51982 77.2976C10.9071 68.4392 26.4299 65.4178 42.4671 70.6318C58.5303 75.7656 69.3084 87.3379 67.6214 97.1629Z" fill="#EE8034"/>
<path d="M68.9284 93.6866C68.016 96.4931 65.2794 97.82 62.6028 100.053C60.2972 101.963 57.5065 103.184 54.2991 102.141C52.6954 101.62 50.7227 101.687 49.0207 102.287C46.228 103.241 43.1849 102.783 40.7212 101.362C38.5523 100.125 35.854 99.4246 33.1877 99.4443C28.8676 99.3697 25.6301 97.8738 22.9161 95.0409C20.4706 92.4726 17.6301 90.5738 14.7956 89.4749C10.5698 87.7464 8.76384 85.12 8.25506 81.2308C7.91456 78.4603 6.83026 76.0685 7.58629 73.7432C10.4018 65.0831 26.3817 62.5649 43.3009 68.0656C60.2201 73.5664 71.744 85.0266 68.9284 93.6866Z" fill="#F7ADBB"/>
<path d="M70.8636 88.5529C67.5788 98.6563 51.234 102.297 34.3148 96.7964C17.3956 91.2956 6.34293 78.6587 9.60166 68.6355C9.9145 67.6733 10.3877 66.7632 10.9411 65.8792C16.0019 57.9491 30.835 55.4127 46.0703 60.366C61.3858 65.3453 71.8913 76.1198 71.3751 85.6161C71.3289 86.5763 71.1764 87.5907 70.8636 88.5529Z" fill="#EE8034"/>
<path d="M71.2389 85.2171C66.098 93.1212 51.2648 95.6575 35.9494 90.6782C20.7141 85.7249 10.2085 74.9504 10.6987 65.5343C15.8657 57.5501 30.6988 55.0137 45.9341 59.967C61.2496 64.9464 71.7552 75.7208 71.2389 85.2171Z" fill="#F7AD1A"/>
<path d="M46.2762 66.5506C46.33 70.2032 39.6058 73.1594 31.3404 73.2207C23.0749 73.282 16.2813 70.4526 16.2015 66.8802C16.1477 63.2276 22.8719 60.2713 31.1373 60.2101C39.4288 60.0686 46.1964 62.9782 46.2762 66.5506Z" fill="#FFC928"/>
<path d="M51.744 77.5489C51.4232 77.4446 51.2407 78.0059 51.5615 78.1102C51.9885 78.1604 52.1449 77.6793 51.744 77.5489Z" fill="#EE8034"/>
<path d="M57.0269 74.3902C55.9845 74.0513 55.437 75.7352 56.4795 76.0741C57.5219 76.413 58.0693 74.7291 57.0269 74.3902Z" fill="#EE8034"/>
<path d="M41.8365 79.1155C40.7941 78.7766 40.2727 80.3803 41.3151 80.7192C42.3575 81.0581 42.9591 79.4805 41.8365 79.1155Z" fill="#EE8034"/>
<path d="M27.5292 77.0352L27.4491 77.0091C27.1283 76.9048 26.9458 77.4661 27.2666 77.5704L27.3468 77.5965C27.6675 77.7008 27.85 77.1395 27.5292 77.0352Z" fill="#EE8034"/>
<path d="M41.9034 73.7288C41.8232 73.7027 41.9034 73.7288 41.9034 73.7288C41.6609 73.384 41.1296 73.6546 41.292 73.9733C41.4263 74.1057 41.4804 74.2119 41.7209 74.2901C42.1219 74.4205 42.3044 73.8592 41.9034 73.7288Z" fill="#EE8034"/>
<path d="M49.3519 64.1812C49.0311 64.077 48.8487 64.6383 49.1694 64.7425C49.4901 64.8468 49.6726 64.2855 49.3519 64.1812Z" fill="#EE8034"/>
<path d="M30.9447 80.9828L30.7042 80.9046C29.6618 80.5657 29.1404 82.1694 30.1828 82.5083L30.4233 82.5865C31.5459 82.9515 32.0673 81.3478 30.9447 80.9828Z" fill="#EE8034"/>
<path d="M15.6965 67.0704C15.3738 66.6995 14.8406 66.7034 14.4696 67.0261C14.2571 67.1344 14.0987 67.3489 14.0205 67.5894C13.8641 68.0705 14.1608 68.5216 14.5617 68.652C14.9626 68.7823 15.3876 68.5659 15.5982 68.191C16.0232 67.9745 15.9651 67.335 15.6965 67.0704Z" fill="#EE8034"/>
<path d="M49.7681 87.9893C48.7257 87.6504 48.1783 89.3343 49.2207 89.6732C50.3693 89.958 50.8907 88.3543 49.7681 87.9893Z" fill="#EE8034"/>
</g>
<path d="M91.7077 23.7087C91.4793 23.3823 91.1139 23.1871 90.7558 23.0141C89.4895 22.3879 88.1788 21.8092 86.797 21.5613C85.4226 21.3175 83.9623 21.4143 82.8147 22.0926C84.0181 19.8007 85.4761 17.6601 87.1554 15.6974C87.019 15.5759 86.8751 15.4504 86.7387 15.3289C85.1613 16.3997 84.0153 17.9555 83.0797 19.6017C82.1441 21.248 81.3894 22.9862 80.4464 24.6284C81.1941 21.2684 80.6046 17.559 78.8235 14.4129C78.4277 14.5261 78.0356 14.6324 77.6398 14.7456C78.9971 15.9197 79.4363 17.6473 79.7204 19.3605C79.997 21.0695 80.1628 22.7708 79.8075 24.425L79.4698 26.4234C79.8174 24.9095 80.9651 24.141 82.4157 23.4874C84.0772 22.7438 85.2345 22.6223 86.9863 22.7154C88.2059 22.7823 90.8018 23.808 91.6312 24.7324C91.9533 24.5237 91.9397 24.0281 91.7077 23.7087Z" fill="#E08CB8"/>
<path d="M79.3247 26.6516C79.2976 26.7567 79.2781 26.866 79.266 26.9794L79.3247 26.6516Z" fill="#E08CB8"/>
<path d="M80.5973 23.4511L36.6976 57.4893C36.6976 57.4893 38.1003 62.3703 42.7855 66.673C46.5018 70.0882 53.541 74.0734 53.541 74.0734C53.541 74.0734 60.633 77.9598 65.4576 79.3021C71.5376 80.996 76.3182 79.5594 76.3182 79.5594L80.5973 23.4511Z" fill="#46A5AA"/>
<path d="M77.9663 35.8597C78.516 36.3812 79.1319 36.9037 79.7885 37.2787L80.0395 33.8347C78.8552 32.9504 77.6267 32.1132 76.5455 31.1073C75.6623 30.2834 74.8895 29.3419 74.2529 28.324L72.4274 29.7255C74.1007 31.9038 75.9617 33.9626 77.9663 35.8597Z" fill="#E08CB8"/>
<path d="M77.1694 60.7314C77.2902 60.7718 77.4221 60.8095 77.5576 60.8403L77.812 57.3496C74.9271 54.9316 71.6747 52.9338 68.8559 50.4277C65.3133 47.2689 62.524 43.3066 60.7871 38.9931L57.035 41.8666C60.1664 45.3142 62.7949 49.1513 65.897 52.6183C69.01 56.1003 72.7431 59.276 77.1694 60.7314Z" fill="#E08CB8"/>
<path d="M76.712 68.0951C76.5587 67.9921 76.4017 67.896 76.2484 67.793C71.1339 64.5328 65.9903 61.2387 61.4665 57.2132C57.7708 53.9236 54.4751 50.1004 52.2447 45.7935L47.8994 49.1224C54.0599 59.41 63.7465 67.8249 74.9088 72.5522C75.3654 72.7437 75.8586 72.92 76.3592 73.0293L76.712 68.0951Z" fill="#E08CB8"/>
<path d="M69.5367 33.5356C69.3353 33.199 69.1451 32.8416 68.9585 32.4774L66.0335 34.7223C68.6782 38.638 71.6284 42.3741 74.8403 45.8704C75.9843 47.1186 77.1981 48.3609 78.7073 49.1219L79.0121 44.8951C75.2665 41.6306 72.0408 37.7677 69.5367 33.5356Z" fill="#E08CB8"/>
<path d="M48.4115 68.102C50.1044 70.3268 51.8046 72.5735 53.714 74.6246C55.3994 75.5176 60.9676 78.3921 64.9514 79.5122C65.9318 79.7903 66.8758 79.9768 67.7651 80.1061C67.5721 79.7225 67.2874 79.3682 66.9991 79.0385C64.5535 76.2168 61.4584 73.9872 58.8074 71.3364C53.7793 66.303 50.4644 59.8613 45.4729 54.777C44.823 54.1125 44.1364 53.4633 43.5415 52.7492L39.2902 56.0068C39.8337 56.7992 40.4174 57.5695 40.9903 58.3247C43.464 61.5897 45.9414 64.8479 48.4115 68.102Z" fill="#E08CB8"/>
<path opacity="0.34" d="M49.1207 54.2549C48.1144 55.0798 47.0663 55.9645 46.6328 57.1907C46.1992 58.4169 46.6164 60.0882 47.8802 60.652C48.7539 61.0361 49.775 60.7823 50.5047 60.2558C51.2343 59.7293 51.7511 58.9646 52.2566 58.2213C55.9422 52.8876 60.4551 48.1336 65.6022 44.1381C66.4833 43.4559 69.2766 40.4222 66.3122 40.4727C64.5855 40.5004 62.0626 43.5921 60.8104 44.6218C56.9176 47.838 53.0172 51.05 49.1207 54.2549Z" fill="white"/>
<path opacity="0.34" d="M68.5003 37.9102C68.3977 38.0836 68.2949 38.2753 68.3198 38.4828C68.3584 38.8821 68.8337 39.1372 69.2319 39.1374C70.0396 39.1347 70.6376 38.49 71.1413 37.8944C71.8116 37.0964 75.551 33.5616 72.4534 33.8858C70.6115 34.0601 69.276 36.5347 68.5003 37.9102Z" fill="white"/>
<path d="M90.0844 30.0083C90.5136 27.9845 89.6955 25.6822 88.0337 24.2629C86.3718 22.8436 83.9539 22.3742 81.9871 23.0838C82.9223 21.7288 84.1756 20.5956 85.6287 19.7988C86.4106 19.368 87.3168 19.0243 88.2341 19.1916C88.1705 18.8318 88.0958 18.4748 88.0322 18.115C84.6047 18.0579 81.3859 20.235 80.2878 23.3473C80.3941 21.8019 79.4386 20.2344 78.1077 19.3145C76.7731 18.3836 75.1185 18.0319 73.5312 18.0511C73.2336 18.057 72.9212 18.0726 72.6886 18.2408C72.2381 18.5673 72.3143 19.2406 72.4243 19.7974C73.9468 19.0482 75.966 19.269 77.3989 20.3357C78.8317 21.4024 79.6087 23.2673 79.3289 24.9415L79.9165 26.0432C80.749 24.6671 82.5281 24.0064 84.1906 24.2723C85.8604 24.5423 87.3627 25.6566 88.2824 27.078C88.5877 27.5542 88.8449 28.0847 88.8669 28.6287C88.8851 29.1796 88.6203 29.7445 88.1155 29.9597C88.7908 30.0646 89.4446 30.0854 90.0844 30.0083Z" fill="#46A5AA"/>
<defs>
<clipPath id="clip0_17801_5953">
<rect width="61.7538" height="47.3849" fill="white" transform="translate(0 169.551) rotate(-24.441)"/>
</clipPath>
<clipPath id="clip1_17801_5953">
<rect width="58" height="45" fill="white" transform="translate(17 246) rotate(15.7336)"/>
</clipPath>
<clipPath id="clip2_17801_5953">
<rect width="64.7556" height="49.4942" fill="white" transform="translate(15.3032 50.0083) rotate(18.0103)"/>
</clipPath>
</defs>
</svg>
