<svg width="1081" height="135" viewBox="0 0 1081 135" fill="none" xmlns="http://www.w3.org/2000/svg">
<line x1="38" y1="98" x2="1039" y2="98.0001" stroke="#D2D2D2" stroke-width="2" stroke-dasharray="2 2"/>
<g clip-path="url(#clip0_17801_5953)">
<path d="M79.7701 112.454C75.8743 124.437 56.4585 128.85 36.3924 122.326C16.2621 115.676 3.15368 100.689 7.01854 88.8011C7.23497 88.1354 7.5465 87.5006 7.82711 86.9609C13.0304 76.4549 31.4404 72.8715 50.4604 79.0553C69.4805 85.2391 82.2633 98.9638 80.2625 110.616C80.1079 111.092 79.9865 111.788 79.7701 112.454Z" fill="#F7AD1A"/>
<path d="M80.1984 110.49C78.7621 112.968 75.9587 114.475 73.2243 116.74C70.4898 119.006 67.18 120.453 63.376 119.217C61.474 118.598 59.1345 118.679 57.1158 119.389C53.8988 120.552 50.1946 119.978 47.2728 118.292C44.7004 116.825 41.5002 115.995 38.338 116.018C33.2143 115.93 29.3747 114.156 26.1558 110.796C23.2555 107.75 19.8867 105.498 16.5559 104.1C11.6392 102.081 9.46645 99.0608 8.86304 94.4482C8.52573 91.6046 7.49649 89.272 7.73212 86.9301C12.9354 76.4242 31.3454 72.8407 50.3655 79.0245C69.4164 85.1132 82.1992 98.838 80.1984 110.49Z" fill="#EE8034"/>
<path d="M81.7493 106.368C80.6671 109.696 77.4215 111.27 74.2472 113.918C71.5127 116.184 68.2029 117.631 64.3989 116.395C62.4969 115.776 60.1574 115.857 58.1387 116.568C54.8266 117.699 51.2175 117.156 48.2956 115.47C45.7233 114.003 42.5231 113.173 39.3609 113.196C34.2372 113.108 30.3976 111.334 27.1787 107.974C24.2784 104.928 20.9096 102.676 17.5479 101.373C12.5361 99.3227 10.3943 96.2079 9.79084 91.5953C9.38701 88.3094 8.10104 85.4728 8.99768 82.7149C12.3369 72.4441 31.289 69.4575 51.3551 75.9814C71.4212 82.5053 85.0885 96.097 81.7493 106.368Z" fill="#F7ADBB"/>
<path d="M84.0441 100.279C80.1484 112.262 60.7635 116.58 40.6973 110.056C20.6312 103.532 7.52282 88.5446 11.3877 76.6571C11.7587 75.5159 12.3199 74.4365 12.9763 73.388C18.9783 63.983 36.5704 60.9748 54.6394 66.8494C72.8035 72.7549 85.2631 85.5334 84.6508 96.7959C84.596 97.9348 84.4152 99.1378 84.0441 100.279Z" fill="#EE8034"/>
<path d="M84.4892 96.3227C78.392 105.697 60.7999 108.705 42.6358 102.799C24.5668 96.9249 12.1073 84.1464 12.6886 72.9789C18.8166 63.5097 36.4087 60.5015 54.4777 66.3761C72.6419 72.2816 85.1014 85.0601 84.4892 96.3227Z" fill="#F7AD1A"/>
<path d="M54.8834 74.1843C54.9471 78.5162 46.9723 82.0223 37.1696 82.095C27.3668 82.1676 19.3095 78.812 19.2148 74.5751C19.1511 70.2432 27.1259 66.7371 36.9287 66.6644C46.7624 66.4967 54.7888 69.9474 54.8834 74.1843Z" fill="#FFC928"/>
<path d="M61.3681 87.2283C60.9877 87.1046 60.7712 87.7703 61.1516 87.894C61.6581 87.9534 61.8436 87.3828 61.3681 87.2283Z" fill="#EE8034"/>
<path d="M67.6333 83.4819C66.397 83.0799 65.7477 85.077 66.984 85.479C68.2203 85.8809 68.8696 83.8838 67.6333 83.4819Z" fill="#EE8034"/>
<path d="M49.6179 89.0864C48.3816 88.6844 47.7632 90.5864 48.9995 90.9884C50.2358 91.3903 50.9493 89.5192 49.6179 89.0864Z" fill="#EE8034"/>
<path d="M32.6492 86.619L32.5541 86.5881C32.1737 86.4644 31.9573 87.1301 32.3377 87.2538L32.4328 87.2847C32.8132 87.4084 33.0296 86.7427 32.6492 86.619Z" fill="#EE8034"/>
<path d="M49.6969 82.6978C49.6018 82.6669 49.6969 82.6978 49.6969 82.6978C49.4093 82.2888 48.7792 82.6097 48.9717 82.9878C49.131 83.1447 49.1952 83.2707 49.4805 83.3635C49.956 83.5181 50.1724 82.8524 49.6969 82.6978Z" fill="#EE8034"/>
<path d="M58.5309 71.3743C58.1505 71.2506 57.9341 71.9163 58.3145 72.04C58.6949 72.1636 58.9113 71.4979 58.5309 71.3743Z" fill="#EE8034"/>
<path d="M36.7001 91.301L36.4148 91.2082C35.1785 90.8063 34.5601 92.7083 35.7964 93.1102L36.0817 93.203C37.4131 93.6358 38.0315 91.7338 36.7001 91.301Z" fill="#EE8034"/>
<path d="M18.6156 74.8008C18.2329 74.3609 17.6004 74.3656 17.1605 74.7483C16.9085 74.8767 16.7206 75.1311 16.6279 75.4164C16.4424 75.987 16.7942 76.522 17.2697 76.6765C17.7452 76.8311 18.2493 76.5744 18.499 76.1298C19.003 75.8731 18.9342 75.1147 18.6156 74.8008Z" fill="#EE8034"/>
<path d="M59.0249 99.6105C57.7886 99.2086 57.1393 101.206 58.3756 101.608C59.7379 101.945 60.3563 100.043 59.0249 99.6105Z" fill="#EE8034"/>
</g>
<g clip-path="url(#clip1_17801_5953)">
<path d="M671.931 91.284C675.343 99.055 667.559 109.977 654.546 115.691C641.444 121.371 628.135 119.711 624.75 112.002C624.56 111.57 624.432 111.111 624.331 110.714C622.238 103.1 629.889 93.0457 642.223 87.6292C654.558 82.2128 667.138 83.3837 671.355 90.1393C671.49 90.4476 671.741 90.8523 671.931 91.284Z" fill="#F7AD1A"/>
<path d="M671.266 90.1047C671.654 91.9941 670.92 94.0084 670.561 96.3732C670.202 98.738 669.186 100.949 666.719 102.033C665.486 102.574 664.346 103.664 663.649 104.926C662.553 106.952 660.433 108.324 658.208 108.786C656.257 109.202 654.276 110.219 652.697 111.648C650.081 113.9 647.355 114.729 644.231 114.483C641.407 114.251 638.704 114.629 636.402 115.419C633.025 116.607 630.579 116.063 628.208 114.014C626.764 112.736 625.201 112.024 624.27 110.741C622.177 103.127 629.827 93.0727 642.162 87.6563C654.47 82.1782 667.049 83.3491 671.266 90.1047Z" fill="#EE8034"/>
<path d="M670.198 87.3368C671.145 89.4954 670.219 91.7414 669.81 94.4958C669.451 96.8606 668.435 99.0721 665.968 100.155C664.735 100.697 663.595 101.786 662.898 103.048C661.74 105.102 659.682 106.447 657.457 106.909C655.506 107.324 653.525 108.341 651.946 109.77C649.33 112.023 646.604 112.852 643.48 112.605C640.656 112.374 637.953 112.752 635.679 113.603C632.24 114.819 629.767 114.213 627.396 112.164C625.72 110.693 623.802 109.843 623.016 108.055C620.092 101.394 628.282 91.397 641.295 85.6827C654.308 79.9683 667.273 80.6759 670.198 87.3368Z" fill="#F7ADBB"/>
<path d="M668.622 83.2469C672.035 91.0179 664.223 101.878 651.21 107.592C638.197 113.307 624.888 111.647 621.503 103.938C621.178 103.198 620.976 102.403 620.836 101.582C619.638 94.1628 627.135 84.7648 638.853 79.6192C650.633 74.4465 662.625 75.2865 667.366 81.2237C667.849 81.8209 668.297 82.5068 668.622 83.2469Z" fill="#EE8034"/>
<path d="M667.073 81.0581C668.209 88.5043 660.712 97.9023 648.932 103.075C637.214 108.221 625.222 107.381 620.508 101.505C619.345 93.9972 626.842 84.5992 638.56 79.4536C650.34 74.2809 662.332 75.1209 667.073 81.0581Z" fill="#F7AD1A"/>
<path d="M642.264 83.1977C644.238 85.3472 641.799 90.6846 636.903 95.1152C632.007 99.5458 626.452 101.47 624.505 99.3824C622.531 97.2328 624.969 91.8954 629.865 87.4648C634.735 82.9726 640.317 81.1098 642.264 83.1977Z" fill="#FFC928"/>
<path d="M651.371 86.8494C651.124 86.9577 651.314 87.3895 651.561 87.2811C651.842 87.0841 651.679 86.714 651.371 86.8494Z" fill="#EE8034"/>
<path d="M652.842 82.1573C652.04 82.5094 652.609 83.8046 653.411 83.4525C654.213 83.1004 653.644 81.8053 652.842 82.1573Z" fill="#EE8034"/>
<path d="M646.296 93.0506C645.494 93.4027 646.036 94.6362 646.837 94.2841C647.639 93.9321 647.159 92.6715 646.296 93.0506Z" fill="#EE8034"/>
<path d="M636.658 99.4161L636.597 99.4432C636.35 99.5515 636.54 99.9832 636.786 99.8749L636.848 99.8478C637.095 99.7395 636.905 99.3078 636.658 99.4161Z" fill="#EE8034"/>
<path d="M643.472 89.8029C643.41 89.83 643.472 89.8029 643.472 89.8029C643.144 89.7262 642.971 90.17 643.237 90.2737C643.388 90.2813 643.477 90.3159 643.662 90.2346C643.97 90.0992 643.78 89.6675 643.472 89.8029Z" fill="#EE8034"/>
<path d="M642.838 80.1497C642.591 80.258 642.781 80.6898 643.027 80.5814C643.274 80.4731 643.085 80.0414 642.838 80.1497Z" fill="#EE8034"/>
<path d="M640.794 99.9543L640.609 100.036C639.807 100.388 640.349 101.621 641.15 101.269L641.335 101.188C642.199 100.809 641.657 99.5751 640.794 99.9543Z" fill="#EE8034"/>
<path d="M624.305 99.7645C623.915 99.7149 623.599 100.001 623.55 100.39C623.481 100.568 623.5 100.78 623.581 100.965C623.744 101.335 624.161 101.446 624.469 101.311C624.777 101.175 624.916 100.82 624.842 100.485C624.98 100.13 624.606 99.7795 624.305 99.7645Z" fill="#EE8034"/>
<path d="M655.743 94.1254C654.941 94.4774 655.51 95.7726 656.312 95.4205C657.148 94.9797 656.606 93.7462 655.743 94.1254Z" fill="#EE8034"/>
</g>
<g clip-path="url(#clip2_17801_5953)">
<path d="M277.244 88.4565C281.452 97.7162 272.292 110.924 256.786 117.971C241.173 124.978 225.199 123.194 221.024 114.007C220.79 113.493 220.63 112.945 220.503 112.471C217.878 103.378 226.891 91.213 241.589 84.533C256.287 77.853 271.379 79.063 276.536 87.0935C276.703 87.461 277.01 87.942 277.244 88.4565Z" fill="#78CCCA"/>
<path d="M276.429 87.0535C276.923 89.3116 276.075 91.7367 275.68 94.576C275.286 97.4153 274.103 100.081 271.164 101.417C269.694 102.085 268.344 103.408 267.529 104.931C266.246 107.376 263.728 109.053 261.069 109.64C258.737 110.168 256.379 111.417 254.508 113.154C251.408 115.893 248.154 116.928 244.406 116.681C241.019 116.447 237.786 116.941 235.04 117.923C231.011 119.399 228.072 118.785 225.199 116.366C223.449 114.856 221.565 114.028 220.429 112.504C217.804 103.412 226.817 91.2465 241.515 84.5665C256.18 77.813 271.272 79.023 276.429 87.0535Z" fill="#5EC4BA"/>
<path d="M275.106 83.7532C276.275 86.3254 275.199 89.031 274.752 92.338C274.357 95.1773 273.175 97.8428 270.235 99.1788C268.765 99.8468 267.416 101.17 266.601 102.693C265.244 105.171 262.799 106.815 260.14 107.402C257.808 107.93 255.45 109.179 253.579 110.916C250.479 113.655 247.226 114.69 243.478 114.443C240.091 114.209 236.857 114.703 234.145 115.759C230.043 117.268 227.07 116.58 224.197 114.161C222.166 112.424 219.855 111.435 218.886 109.304C215.279 101.367 224.94 89.2622 240.447 82.2148C256.026 75.134 271.499 75.8163 275.106 83.7532Z" fill="#EB5660"/>
<path d="M272.835 78.7558C277.044 88.0155 267.85 101.149 252.344 108.197C236.764 115.278 220.79 113.493 216.615 104.307C216.214 103.425 215.961 102.476 215.78 101.494C214.271 92.5151 223.11 81.1382 237.073 74.7922C251.11 68.4128 265.493 69.2353 271.265 76.2771C271.853 76.9853 272.401 77.8004 272.835 78.7558Z" fill="#5EC4BA"/>
<path d="M271.566 76.9385C273.075 85.9175 264.236 97.2944 250.199 103.674C236.236 110.02 221.853 109.197 216.081 102.156C214.571 93.1765 223.411 81.7996 237.374 75.4536C251.41 69.0742 265.794 69.8967 271.566 76.9385Z" fill="#78CCCA"/>
<path d="M241.569 79.2219C243.967 81.7674 241.128 88.2008 235.328 93.5852C229.563 99.0431 222.902 101.361 220.537 98.8889C218.139 96.3434 220.978 89.91 226.778 84.5256C232.543 79.0677 239.204 76.7499 241.569 79.2219Z" fill="#9BD7D5"/>
<path d="M252.539 83.4579C252.245 83.5915 252.479 84.1059 252.773 83.9723C253.107 83.7318 252.906 83.2909 252.539 83.4579Z" fill="#5EC4BA"/>
<path d="M254.229 77.8128C253.274 78.247 253.942 79.7168 254.897 79.2826C255.853 78.8484 255.185 77.3786 254.229 77.8128Z" fill="#5EC4BA"/>
<path d="M246.552 90.9668C245.597 91.401 246.298 92.9443 247.254 92.5101C248.283 92.0425 247.581 90.4992 246.552 90.9668Z" fill="#5EC4BA"/>
<path d="M235.101 98.7426L235.028 98.776C234.734 98.9096 234.967 99.4241 235.261 99.2905L235.335 99.2571C235.629 99.1235 235.395 98.609 235.101 98.7426Z" fill="#5EC4BA"/>
<path d="M243.118 87.1187L243.045 87.1521C242.724 87.0318 242.524 87.5662 242.844 87.6865C243.025 87.6932 243.132 87.7333 243.352 87.6331C243.72 87.4661 243.486 86.9517 243.118 87.1187Z" fill="#5EC4BA"/>
<path d="M242.211 75.5607C241.917 75.6943 242.151 76.2087 242.445 76.0751C242.738 75.9415 242.505 75.4271 242.211 75.5607Z" fill="#7AC143"/>
<path d="M240.065 99.3242L239.844 99.4244C238.889 99.8585 239.59 101.402 240.546 100.968L240.766 100.867C241.762 100.326 241.094 98.8566 240.065 99.3242Z" fill="#5EC4BA"/>
<path d="M220.303 99.3498C219.836 99.2963 219.461 99.6437 219.408 100.111C219.328 100.325 219.355 100.579 219.455 100.799C219.655 101.24 220.156 101.367 220.524 101.2C220.891 101.033 221.051 100.606 220.958 100.205C221.118 99.7774 220.664 99.3631 220.303 99.3498Z" fill="#5EC4BA"/>
<path d="M257.89 92.1099C256.934 92.5441 257.602 94.0139 258.558 93.5797C259.513 93.1455 258.918 91.6423 257.89 92.1099Z" fill="#5EC4BA"/>
</g>
<g clip-path="url(#clip3_17801_5953)">
<path d="M874.319 102.296C873.266 112.412 858.684 119.173 841.743 117.411C824.73 115.559 811.852 105.941 812.897 95.9046C812.955 95.3426 813.094 94.7889 813.224 94.3155C815.558 85.1439 829.486 79.2076 845.544 80.8784C861.602 82.5493 874.01 91.2258 874.397 100.762C874.355 101.163 874.377 101.734 874.319 102.296Z" fill="#78CCCA"/>
<path d="M874.325 100.673C873.61 102.871 871.651 104.534 869.875 106.784C868.099 109.034 865.731 110.735 862.519 110.401C860.913 110.234 859.08 110.693 857.606 111.594C855.263 113.055 852.242 113.227 849.651 112.39C847.373 111.666 844.707 111.551 842.214 112.103C838.155 112.898 834.824 112.146 831.716 110.037C828.913 108.122 825.873 106.913 823.008 106.371C818.786 105.607 816.561 103.59 815.306 100.051C814.56 97.8631 813.353 96.1955 813.144 94.3071C815.478 85.1354 829.406 79.1991 845.464 80.8699C861.531 82.4605 873.938 91.137 874.325 100.673Z" fill="#5EC4BA"/>
<path d="M874.854 97.1571C874.561 99.9672 872.265 101.757 870.206 104.384C868.43 106.634 866.062 108.335 862.85 108.001C861.244 107.834 859.411 108.292 857.937 109.194C855.514 110.646 852.573 110.827 849.982 109.99C847.704 109.265 845.038 109.15 842.545 109.703C838.486 110.498 835.155 109.745 832.047 107.636C829.244 105.721 826.204 104.512 823.33 104.051C819.028 103.279 816.811 101.182 815.557 97.6422C814.683 95.1166 813.189 93.0944 813.431 90.766C814.334 82.0946 828.79 76.538 845.732 78.3007C862.753 80.0718 875.756 88.4857 874.854 97.1571Z" fill="#EB5660"/>
<path d="M875.422 91.6973C874.369 101.814 859.796 108.495 842.854 106.732C825.833 104.961 812.955 95.3425 814 85.3062C814.1 84.3427 814.361 83.396 814.702 82.4575C817.941 73.9482 831.32 68.604 846.575 70.1913C861.911 71.787 873.903 79.7711 875.321 88.765C875.47 89.6733 875.53 90.6535 875.422 91.6973Z" fill="#5EC4BA"/>
<path d="M875.246 89.4877C872.007 97.9971 858.627 103.341 843.292 101.746C828.037 100.158 816.044 92.1741 814.626 83.1802C817.865 74.6708 831.245 69.3267 846.5 70.914C861.835 72.5097 873.828 80.4937 875.246 89.4877Z" fill="#78CCCA"/>
<path d="M848.214 76.2865C848.995 79.6954 843.292 83.8092 835.566 85.5213C827.831 87.3136 820.913 85.9445 820.123 82.6159C819.341 79.207 825.045 75.0932 832.771 73.3812C840.505 71.5888 847.424 72.958 848.214 76.2865Z" fill="#9BD7D5"/>
<path d="M855.534 85.4889C855.213 85.4555 855.155 86.0175 855.476 86.051C855.886 86.0124 855.936 85.5307 855.534 85.4889Z" fill="#5EC4BA"/>
<path d="M859.848 81.4738C858.804 81.3652 858.637 82.971 859.681 83.0796C860.724 83.1882 860.892 81.5824 859.848 81.4738Z" fill="#5EC4BA"/>
<path d="M846.572 88.9389C845.529 88.8303 845.353 90.5164 846.397 90.625C847.521 90.7419 847.696 89.0558 846.572 88.9389Z" fill="#5EC4BA"/>
<path d="M832.761 89.8554L832.681 89.8471C832.36 89.8137 832.301 90.3757 832.622 90.4091L832.703 90.4175C833.024 90.4509 833.082 89.8889 832.761 89.8554Z" fill="#5EC4BA"/>
<path d="M845.557 83.8826L845.476 83.8743C845.26 83.6083 844.817 83.968 845.033 84.2339C845.185 84.3309 845.257 84.4196 845.498 84.4446C845.9 84.4864 845.958 83.9244 845.557 83.8826Z" fill="#5EC4BA"/>
<path d="M850.618 73.4526C850.297 73.4191 850.239 73.9812 850.56 74.0146C850.881 74.048 850.939 73.486 850.618 73.4526Z" fill="#7AC143"/>
<path d="M836.749 92.8675L836.508 92.8424C835.465 92.7338 835.289 94.4199 836.333 94.5285L836.574 94.5536C837.706 94.5903 837.873 92.9845 836.749 92.8675Z" fill="#5EC4BA"/>
<path d="M819.688 82.8951C819.312 82.6124 818.813 82.7229 818.531 83.0993C818.353 83.2432 818.248 83.4757 818.223 83.7166C818.173 84.1983 818.541 84.5612 818.942 84.603C819.344 84.6448 819.698 84.357 819.82 83.9639C820.175 83.6762 819.993 83.0891 819.688 82.8951Z" fill="#5EC4BA"/>
<path d="M855.775 95.6588C854.731 95.5502 854.564 97.1561 855.607 97.2647C856.651 97.3733 856.899 95.7758 855.775 95.6588Z" fill="#5EC4BA"/>
</g>
<g clip-path="url(#clip4_17801_5953)">
<path d="M472.546 110.271C469.926 119.568 455.327 123.579 439.929 119.241C424.479 114.809 414.12 103.767 416.719 94.5433C416.864 94.0267 417.083 93.5308 417.28 93.1086C420.932 84.8986 434.792 81.5555 449.387 85.6673C463.983 89.7791 474.059 99.8655 472.868 108.848C472.764 109.217 472.691 109.754 472.546 110.271Z" fill="#F281A3"/>
<path d="M472.815 108.754C471.795 110.697 469.711 111.942 467.701 113.765C465.691 115.588 463.222 116.803 460.303 115.981C458.843 115.57 457.071 115.708 455.561 116.318C453.154 117.312 450.329 116.994 448.066 115.799C446.075 114.76 443.625 114.229 441.228 114.351C437.34 114.45 434.379 113.218 431.844 110.751C429.56 108.515 426.942 106.901 424.378 105.94C420.593 104.555 418.861 102.315 418.275 98.8047C417.939 96.6395 417.094 94.888 417.207 93.0881C420.859 84.8781 434.719 81.535 449.314 85.6468C463.93 89.6848 474.007 99.7712 472.815 108.754Z" fill="#EE5D7C"/>
<path d="M473.876 105.548C473.148 108.131 470.731 109.441 468.398 111.571C466.388 113.394 463.919 114.61 461 113.788C459.54 113.377 457.768 113.515 456.257 114.124C453.778 115.098 451.026 114.801 448.763 113.606C446.771 112.567 444.322 112.036 441.924 112.157C438.037 112.257 435.076 111.024 432.541 108.558C430.257 106.322 427.639 104.708 425.054 103.82C421.196 102.415 419.485 100.101 418.898 96.5909C418.5 94.0894 417.446 91.9606 418.049 89.8207C420.294 81.8515 434.581 78.9475 449.98 83.2854C465.378 87.6233 476.121 97.5791 473.876 105.548Z" fill="#AAD7D4"/>
<path d="M475.289 100.531C472.67 109.828 458.092 113.765 442.694 109.427C427.223 105.069 416.864 94.0267 419.463 84.8031C419.712 83.9176 420.107 83.0733 420.576 82.2495C424.958 74.8027 438.214 71.9266 452.079 75.8328C465.945 79.7389 475.822 89.1323 475.673 97.7715C475.663 98.6448 475.56 99.5714 475.289 100.531Z" fill="#EE5D7C"/>
<path d="M475.673 97.7714C471.311 105.144 458.056 108.021 444.117 104.094C430.179 100.167 420.447 90.8149 420.576 82.2495C424.958 74.8027 438.213 71.9265 452.079 75.8327C465.944 79.7389 475.822 89.1323 475.673 97.7714Z" fill="#F281A3"/>
<path d="M452.605 81.795C452.774 85.1081 446.825 88.0516 439.394 88.427C431.963 88.8025 425.759 86.4973 425.569 83.258C425.4 79.9448 431.349 77.0014 438.78 76.6259C446.232 76.1767 452.415 78.5556 452.605 81.795Z" fill="#F2AEBD"/>
<path d="M457.886 91.5661C457.595 91.4838 457.449 92.0004 457.741 92.0826C458.127 92.1116 458.251 91.6689 457.886 91.5661Z" fill="#EE3686"/>
<path d="M462.533 88.4944C461.584 88.2271 461.168 89.7029 462.117 89.9702C463.066 90.2374 463.482 88.7617 462.533 88.4944Z" fill="#EE3686"/>
<path d="M449.028 93.3713C448.08 93.1041 447.664 94.5799 448.613 94.8471C449.614 95.2087 450.05 93.6592 449.028 93.3713Z" fill="#EE3686"/>
<path d="M436.093 92.0368L436.02 92.0163C435.728 91.934 435.582 92.4506 435.874 92.5328L435.947 92.5533C436.239 92.6356 436.385 92.1191 436.093 92.0368Z" fill="#EE3686"/>
<path d="M448.91 88.4797C448.837 88.4592 448.91 88.4797 448.91 88.4797C448.681 88.1761 448.212 88.4423 448.368 88.7253C448.494 88.8402 448.546 88.9346 448.765 88.9962C449.13 89.099 449.275 88.5825 448.91 88.4797Z" fill="#EE3686"/>
<path d="M455.292 79.5255C455 79.4433 454.855 79.9598 455.147 80.0421C455.439 80.1243 455.584 79.6078 455.292 79.5255Z" fill="#EE3686"/>
<path d="M439.295 95.4877L439.076 95.426C438.128 95.1588 437.691 96.7083 438.64 96.9756L438.859 97.0373C439.901 97.2513 440.317 95.7755 439.295 95.4877Z" fill="#EE3686"/>
<path d="M425.121 83.4503C424.818 83.1262 424.339 83.1504 424.016 83.4577C423.829 83.5641 423.693 83.7649 423.631 83.9863C423.506 84.429 423.788 84.827 424.153 84.9298C424.518 85.0326 424.893 84.8197 425.07 84.4713C425.445 84.2583 425.371 83.6801 425.121 83.4503Z" fill="#EE3686"/>
<path d="M456.456 101.119C455.507 100.851 455.091 102.327 456.04 102.594C457.062 102.882 457.477 101.406 456.456 101.119Z" fill="#EE3686"/>
</g>
<g clip-path="url(#clip5_17801_5953)">
<path d="M1075.65 93.5246C1078.59 102.725 1068.62 114.121 1053.39 118.993C1038.05 123.815 1023.32 120.315 1020.4 111.187C1020.24 110.676 1020.15 110.142 1020.08 109.681C1018.6 100.818 1028.32 90.3866 1042.76 85.7689C1057.21 81.1512 1071.17 84.0095 1075.13 92.1603C1075.25 92.5254 1075.49 93.0135 1075.65 93.5246Z" fill="#F281A3"/>
<path d="M1075.04 92.1104C1075.26 94.2935 1074.21 96.4809 1073.53 99.1102C1072.86 101.739 1071.47 104.115 1068.58 105.039C1067.14 105.501 1065.74 106.593 1064.81 107.934C1063.35 110.091 1060.82 111.384 1058.28 111.634C1056.04 111.866 1053.71 112.774 1051.77 114.197C1048.58 116.423 1045.43 117.028 1041.96 116.368C1038.82 115.762 1035.75 115.859 1033.08 116.471C1029.16 117.403 1026.48 116.489 1024.05 113.884C1022.58 112.263 1020.91 111.268 1020.01 109.704C1018.53 100.841 1028.25 90.4097 1042.69 85.792C1057.11 81.1013 1071.08 83.9596 1075.04 92.1104Z" fill="#EE5D7C"/>
<path d="M1074.16 88.8513C1074.97 91.407 1073.68 93.8328 1072.91 96.8965C1072.24 99.5257 1070.85 101.902 1067.96 102.825C1066.51 103.287 1065.11 104.379 1064.19 105.721C1062.65 107.901 1060.2 109.17 1057.65 109.421C1055.41 109.652 1053.08 110.56 1051.14 111.983C1047.96 114.21 1044.81 114.814 1041.33 114.154C1038.19 113.548 1035.12 113.646 1032.47 114.331C1028.48 115.285 1025.78 114.299 1023.35 111.694C1021.64 109.826 1019.59 108.632 1018.91 106.514C1016.39 98.6279 1026.71 88.327 1041.94 83.4553C1057.18 78.5837 1071.63 80.9652 1074.16 88.8513Z" fill="#AAD7D4"/>
<path d="M1072.57 83.886C1075.51 93.0865 1065.52 104.41 1050.28 109.281C1034.97 114.176 1020.24 110.676 1017.32 101.549C1017.04 100.672 1016.91 99.75 1016.84 98.8045C1016.39 90.1758 1025.87 80.4672 1039.59 76.0803C1053.31 71.6935 1066.73 74.0831 1071.37 81.3727C1071.84 82.1067 1072.26 82.9367 1072.57 83.886Z" fill="#EE5D7C"/>
<path d="M1071.37 81.3727C1071.79 89.9284 1062.32 99.637 1048.53 104.047C1034.73 108.457 1021.46 106.021 1016.84 98.8045C1016.39 90.1757 1025.87 80.4671 1039.59 76.0803C1053.31 71.6935 1066.73 74.0831 1071.37 81.3727Z" fill="#F281A3"/>
<path d="M1043.31 80.7644C1045.28 83.4349 1041.94 89.1708 1035.95 93.5817C1029.96 97.9925 1023.51 99.4901 1021.57 96.8925C1019.6 94.2219 1022.94 88.486 1028.93 84.0752C1034.9 79.5913 1041.37 78.1668 1043.31 80.7644Z" fill="#F2AEBD"/>
<path d="M1053.11 86.0032C1052.82 86.0956 1052.98 86.6067 1053.27 86.5144C1053.61 86.3259 1053.47 85.8878 1053.11 86.0032Z" fill="#EE3686"/>
<path d="M1055.29 80.8791C1054.35 81.1793 1054.82 82.6397 1055.76 82.3395C1056.69 82.0394 1056.23 80.579 1055.29 80.8791Z" fill="#EE3686"/>
<path d="M1046.71 92.3938C1045.77 92.6939 1046.24 94.1543 1047.18 93.8542C1048.21 93.604 1047.72 92.0705 1046.71 92.3938Z" fill="#EE3686"/>
<path d="M1035.18 98.4133L1035.11 98.4363C1034.82 98.5287 1034.99 99.0398 1035.28 98.9475L1035.35 98.9244C1035.64 98.832 1035.47 98.3209 1035.18 98.4133Z" fill="#EE3686"/>
<path d="M1043.92 88.3783C1043.84 88.4014 1043.92 88.3783 1043.92 88.3783C1043.56 88.2516 1043.31 88.7322 1043.6 88.882C1043.77 88.9088 1043.86 88.9588 1044.08 88.8895C1044.44 88.774 1044.28 88.2629 1043.92 88.3783Z" fill="#EE3686"/>
<path d="M1044.3 77.3892C1044.01 77.4816 1044.18 77.9927 1044.47 77.9004C1044.76 77.808 1044.59 77.2969 1044.3 77.3892Z" fill="#EE3686"/>
<path d="M1039.76 99.5262L1039.54 99.5954C1038.6 99.8956 1039.09 101.429 1040.03 101.129L1040.25 101.06C1041.24 100.663 1040.77 99.2029 1039.76 99.5262Z" fill="#EE3686"/>
<path d="M1021.3 97.3C1020.87 97.1964 1020.48 97.481 1020.38 97.9153C1020.28 98.1076 1020.28 98.3497 1020.35 98.5688C1020.49 99.0069 1020.94 99.1835 1021.31 99.0681C1021.67 98.9526 1021.86 98.5682 1021.82 98.18C1022.01 97.7956 1021.63 97.3537 1021.3 97.3Z" fill="#EE3686"/>
<path d="M1057.18 94.7615C1056.24 95.0616 1056.71 96.522 1057.65 96.2219C1058.66 95.8986 1058.19 94.4382 1057.18 94.7615Z" fill="#EE3686"/>
</g>
<path d="M108.623 23.0865C108.366 22.703 107.943 22.4834 107.527 22.2902C106.057 21.5896 104.533 20.948 102.912 20.7078C101.3 20.4723 99.5732 20.6507 98.1929 21.5162C99.7015 18.7049 101.505 16.0651 103.562 13.6302C103.406 13.4897 103.241 13.3446 103.085 13.2041C101.182 14.5604 99.7696 16.4826 98.602 18.5049C97.4343 20.5272 96.4766 22.6527 95.3004 24.6703C96.3126 20.592 95.7606 16.1494 93.7808 12.4355C93.3095 12.5886 92.8427 12.7332 92.3714 12.8863C93.9274 14.243 94.3788 16.3051 94.6476 18.3564C94.9079 20.4031 95.0376 22.4451 94.5544 24.4524L94.0786 26.8736C94.5473 25.0355 95.9313 24.0614 97.6681 23.2129C99.6573 22.2471 101.027 22.0517 103.091 22.0898C104.527 22.1188 107.551 23.2445 108.493 24.3226C108.881 24.0577 108.885 23.4614 108.623 23.0865Z" fill="#E08CB8"/>
<path d="M94.0837 26.865C94.0489 26.99 94.0227 27.1197 94.0049 27.254L94.0837 26.865Z" fill="#E08CB8"/>
<path d="M96.2363 22.4217L43.6657 64.5904C43.6657 64.5904 45.1475 70.3589 50.4949 75.3194C54.7364 79.2569 62.8527 83.7537 62.8527 83.7537C62.8527 83.7537 71.0341 88.1309 76.6431 89.5569C83.7114 91.3566 89.3609 89.471 89.3609 89.471L96.2363 22.4217Z" fill="#46A5AA"/>
<path d="M92.3404 37.8221C92.9727 38.4321 93.6835 39.0406 94.4484 39.4682L94.8809 35.2736C93.5094 34.25 92.0835 33.2853 90.8392 32.1094C89.8228 31.1462 88.9421 30.0354 88.226 28.8259L86.0039 30.6063C87.9055 33.1812 90.0345 35.603 92.3404 37.8221Z" fill="#E08CB8"/>
<path d="M91.1259 67.2744C91.2681 67.3186 91.4235 67.3589 91.5836 67.3907L92.023 63.1224C88.684 60.2965 84.8911 57.9987 81.6342 55.0625C77.5414 51.3609 74.3765 46.6474 72.4782 41.4605L67.8997 45.1254C71.4919 49.1967 74.4701 53.7643 78.0266 57.8605C81.5955 61.9745 85.9144 65.6883 91.1259 67.2744Z" fill="#E08CB8"/>
<path d="M90.7186 75.7796C90.5398 75.6601 90.3563 75.5491 90.1775 75.4296C84.2054 71.6573 78.1998 67.8447 72.9622 63.1101C68.6835 59.2409 64.9028 54.7015 62.4117 49.5242L57.0982 53.7856C64.0419 66.1165 75.2648 76.0039 88.3928 81.3134C88.9299 81.5283 89.5112 81.723 90.104 81.8354L90.7186 75.7796Z" fill="#E08CB8"/>
<path d="M82.7378 34.9967C82.512 34.5969 82.3002 34.1714 82.0931 33.7375L78.536 36.5852C81.5206 41.2227 84.8746 45.6295 88.5484 49.7341C89.8568 51.1996 91.2483 52.655 93.0088 53.5139L93.5351 48.3736C89.2192 44.5728 85.5433 40.024 82.7378 34.9967Z" fill="#E08CB8"/>
<path d="M57.3334 76.3191C59.263 78.9646 61.2004 81.6365 63.3947 84.0606C65.3676 85.0794 71.8884 88.353 76.5905 89.551C77.7476 89.8488 78.8649 90.0363 79.9192 90.1563C79.7043 89.6959 79.3791 89.2752 79.0485 88.8848C76.2456 85.5423 72.6458 82.951 69.5915 79.826C63.7987 73.892 60.1021 66.1644 54.3551 60.1667C53.6068 59.3827 52.8143 58.619 52.1336 57.7721L46.9412 61.9333C47.5576 62.8781 48.2228 63.7941 48.8756 64.6922C51.6946 68.5751 54.5183 72.4494 57.3334 76.3191Z" fill="#E08CB8"/>
<path opacity="0.34" d="M58.3251 59.8585C57.1314 60.8698 55.8874 61.9534 55.3445 63.4187C54.8016 64.8841 55.2303 66.8453 56.6768 67.4667C57.6771 67.8896 58.8692 67.5529 59.7323 66.9043C60.5954 66.2557 61.2197 65.333 61.8301 64.436C66.278 57.9977 71.6659 52.2151 77.764 47.3066C78.8079 46.4685 82.1457 42.7815 78.7076 42.9473C76.7049 43.0419 73.6787 46.7878 72.1932 48.05C67.5747 51.9921 62.9476 55.9296 58.3251 59.8585Z" fill="white"/>
<path opacity="0.34" d="M81.2561 40.3032C81.1313 40.5121 81.0057 40.7428 81.0277 40.9873C81.0593 41.4586 81.6027 41.7434 82.0649 41.7293C83.0025 41.6971 83.7179 40.9126 84.3222 40.1896C85.1267 39.221 89.584 34.9032 85.9777 35.3983C83.8338 35.6708 82.202 38.6475 81.2561 40.3032Z" fill="white"/>
<path d="M106.558 30.7883C107.135 28.3229 106.242 25.566 104.317 23.9089C102.392 22.2518 99.5384 21.7722 97.1802 22.7032C98.3358 21.0288 99.8614 19.6112 101.613 18.5934C102.555 18.0434 103.642 17.5942 104.726 17.7631C104.662 17.3299 104.586 16.9005 104.522 16.4673C100.456 16.5238 96.5625 19.2769 95.1546 23.0843C95.3326 21.2099 94.2515 19.3476 92.7027 18.2828C91.1501 17.2048 89.1982 16.8398 87.3137 16.9212C86.9602 16.9392 86.5889 16.9696 86.3072 17.1817C85.7615 17.5934 85.8292 18.4055 85.9411 19.0756C87.7734 18.1129 90.1624 18.3062 91.8271 19.5448C93.4918 20.7835 94.3512 23.0124 93.9628 25.0492L94.623 26.3612C95.6574 24.665 97.7912 23.8001 99.7554 24.0611C101.728 24.3268 103.474 25.6205 104.517 27.3074C104.864 27.8725 105.151 28.5052 105.159 29.1629C105.162 29.8291 104.829 30.5226 104.222 30.8015C105.02 30.9038 105.796 30.905 106.558 30.7883Z" fill="#46A5AA"/>
<defs>
<clipPath id="clip0_17801_5953">
<rect width="76.8" height="58.7" fill="white" transform="translate(18.1494 54.5652) rotate(18.0103)"/>
</clipPath>
<clipPath id="clip1_17801_5953">
<rect width="51.7316" height="39.5397" fill="white" transform="translate(615 89.7991) rotate(-23.7069)"/>
</clipPath>
<clipPath id="clip2_17801_5953">
<rect width="61.7538" height="47.3849" fill="white" transform="translate(209 87.551) rotate(-24.441)"/>
</clipPath>
<clipPath id="clip3_17801_5953">
<rect width="61.7538" height="47.3849" fill="white" transform="translate(815.904 67) rotate(5.94032)"/>
</clipPath>
<clipPath id="clip4_17801_5953">
<rect width="58" height="45" fill="white" transform="translate(424.202 67.9792) rotate(15.7336)"/>
</clipPath>
<clipPath id="clip5_17801_5953">
<rect width="58" height="45" fill="white" transform="translate(1012 84.9001) rotate(-17.7298)"/>
</clipPath>
</defs>
</svg>
